# Blender v3.5.0 OBJ File: ''
# www.blender.org
mtllib BossBody.mtl
o 円錐
v 0.000000 3.500000 -1.000000
v -0.195090 3.500000 -0.980785
v -0.382683 3.500000 -0.923880
v -0.555570 3.500000 -0.831470
v -0.707107 3.500000 -0.707107
v -0.831470 3.500000 -0.555570
v -0.923880 3.500000 -0.382684
v -0.980785 3.500000 -0.195090
v -1.000000 3.500000 -0.000000
v -0.980785 3.500000 0.195090
v -0.923880 3.500000 0.382683
v -0.831470 3.500000 0.555570
v -0.707107 3.500000 0.707107
v -0.555570 3.500000 0.831469
v -0.382683 3.500000 0.923879
v -0.195090 3.500000 0.980785
v 0.000000 3.500000 1.000000
v 0.195090 3.500000 0.980785
v 0.382683 3.500000 0.923879
v 0.555570 3.500000 0.831469
v 0.707107 3.500000 0.707107
v 0.831470 3.500000 0.555570
v 0.923880 3.500000 0.382683
v 0.980785 3.500000 0.195090
v 1.000000 3.500000 -0.000000
v 0.980785 3.500000 -0.195090
v 0.923880 3.500000 -0.382684
v 0.831470 3.500000 -0.555570
v 0.707107 3.500000 -0.707107
v 0.555570 3.500000 -0.831470
v 0.382683 3.500000 -0.923880
v 0.195090 3.500000 -0.980785
v 0.000000 0.500000 0.000000
vt 0.528473 0.012355
vt 0.617611 0.574802
vt 0.494323 0.018643
vt 0.460090 0.027353
vt 0.427088 0.038152
vt 0.396586 0.050624
vt 0.369756 0.064289
vt 0.347629 0.078623
vt 0.331056 0.093075
vt 0.320673 0.107089
vt 0.007911 0.475624
vt 0.304850 0.007911
vt 0.018294 0.489638
vt 0.034868 0.504090
vt 0.056994 0.518424
vt 0.083824 0.532089
vt 0.114326 0.544561
vt 0.147328 0.555360
vt 0.181562 0.564070
vt 0.215711 0.570358
vt 0.248465 0.573982
vt 0.278563 0.574802
vt 0.304850 0.572786
vt 0.633434 0.489638
vt 0.919990 0.007911
vt 0.650007 0.504090
vt 0.672134 0.518424
vt 0.698964 0.532089
vt 0.729466 0.544561
vt 0.762468 0.555360
vt 0.796702 0.564070
vt 0.830851 0.570358
vt 0.863605 0.573982
vt 0.893703 0.574802
vt 0.919990 0.572786
vt 0.617611 0.009927
vt 0.591325 0.007911
vt 0.727818 0.611034
vt 0.971679 0.685008
vt 0.897705 0.928869
vt 0.561226 0.008731
vt 0.865069 0.942387
vt 0.830424 0.949279
vt 0.795099 0.949279
vt 0.760454 0.942387
vt 0.727818 0.928869
vt 0.698447 0.909244
vt 0.673469 0.884266
vt 0.653844 0.854895
vt 0.640325 0.822259
vt 0.633434 0.787614
vt 0.633434 0.752289
vt 0.640325 0.717644
vt 0.653844 0.685008
vt 0.673469 0.655637
vt 0.698447 0.630659
vt 0.760454 0.597516
vt 0.795099 0.590624
vt 0.830424 0.590624
vt 0.865069 0.597516
vt 0.897705 0.611034
vt 0.927076 0.630659
vt 0.952054 0.655637
vt 0.985197 0.717644
vt 0.992089 0.752289
vt 0.992089 0.787614
vt 0.985197 0.822259
vt 0.971679 0.854895
vt 0.952054 0.884266
vt 0.927076 0.909244
vn -0.0930 -0.3149 -0.9446
vn -0.2755 -0.3149 -0.9083
vn -0.4474 -0.3149 -0.8371
vn -0.6021 -0.3149 -0.7337
vn -0.7337 -0.3149 -0.6021
vn -0.8371 -0.3149 -0.4474
vn -0.9083 -0.3149 -0.2755
vn -0.9446 -0.3149 -0.0930
vn -0.9446 -0.3149 0.0930
vn -0.9083 -0.3149 0.2755
vn -0.8371 -0.3149 0.4474
vn -0.7337 -0.3149 0.6021
vn -0.6021 -0.3149 0.7337
vn -0.4474 -0.3149 0.8371
vn -0.2755 -0.3149 0.9083
vn -0.0930 -0.3149 0.9446
vn 0.0930 -0.3149 0.9446
vn 0.2755 -0.3149 0.9083
vn 0.4474 -0.3149 0.8371
vn 0.6021 -0.3149 0.7337
vn 0.7337 -0.3149 0.6021
vn 0.8371 -0.3149 0.4474
vn 0.9083 -0.3149 0.2755
vn 0.9446 -0.3149 0.0930
vn 0.9446 -0.3149 -0.0930
vn 0.9083 -0.3149 -0.2755
vn 0.8371 -0.3149 -0.4474
vn 0.7337 -0.3149 -0.6021
vn 0.6021 -0.3149 -0.7337
vn 0.4474 -0.3149 -0.8371
vn 0.0000 1.0000 0.0000
vn 0.2755 -0.3149 -0.9083
vn 0.0930 -0.3149 -0.9446
usemtl マテリアル
s off
f 1/1/1 33/2/1 2/3/1
f 2/3/2 33/2/2 3/4/2
f 3/4/3 33/2/3 4/5/3
f 4/5/4 33/2/4 5/6/4
f 5/6/5 33/2/5 6/7/5
f 6/7/6 33/2/6 7/8/6
f 7/8/7 33/2/7 8/9/7
f 8/9/8 33/2/8 9/10/8
f 9/11/9 33/12/9 10/13/9
f 10/13/10 33/12/10 11/14/10
f 11/14/11 33/12/11 12/15/11
f 12/15/12 33/12/12 13/16/12
f 13/16/13 33/12/13 14/17/13
f 14/17/14 33/12/14 15/18/14
f 15/18/15 33/12/15 16/19/15
f 16/19/16 33/12/16 17/20/16
f 17/20/17 33/12/17 18/21/17
f 18/21/18 33/12/18 19/22/18
f 19/22/19 33/12/19 20/23/19
f 20/24/20 33/25/20 21/26/20
f 21/26/21 33/25/21 22/27/21
f 22/27/22 33/25/22 23/28/22
f 23/28/23 33/25/23 24/29/23
f 24/29/24 33/25/24 25/30/24
f 25/30/25 33/25/25 26/31/25
f 26/31/26 33/25/26 27/32/26
f 27/32/27 33/25/27 28/33/27
f 28/33/28 33/25/28 29/34/28
f 29/34/29 33/25/29 30/35/29
f 30/36/30 33/2/30 31/37/30
f 16/38/31 24/39/31 32/40/31
f 31/37/32 33/2/32 32/41/32
f 32/41/33 33/2/33 1/1/33
f 32/40/31 1/42/31 2/43/31
f 2/43/31 3/44/31 32/40/31
f 3/44/31 4/45/31 32/40/31
f 4/45/31 5/46/31 6/47/31
f 6/47/31 7/48/31 8/49/31
f 8/49/31 9/50/31 10/51/31
f 10/51/31 11/52/31 12/53/31
f 12/53/31 13/54/31 14/55/31
f 14/55/31 15/56/31 16/38/31
f 16/38/31 17/57/31 18/58/31
f 18/58/31 19/59/31 16/38/31
f 19/59/31 20/60/31 16/38/31
f 20/60/31 21/61/31 22/62/31
f 22/62/31 23/63/31 24/39/31
f 24/39/31 25/64/31 26/65/31
f 26/65/31 27/66/31 28/67/31
f 28/67/31 29/68/31 30/69/31
f 30/69/31 31/70/31 32/40/31
f 4/45/31 6/47/31 8/49/31
f 8/49/31 10/51/31 16/38/31
f 10/51/31 12/53/31 16/38/31
f 12/53/31 14/55/31 16/38/31
f 20/60/31 22/62/31 24/39/31
f 24/39/31 26/65/31 32/40/31
f 26/65/31 28/67/31 32/40/31
f 28/67/31 30/69/31 32/40/31
f 32/40/31 4/45/31 8/49/31
f 16/38/31 20/60/31 24/39/31
f 32/40/31 8/49/31 16/38/31
