# Blender v3.5.0 OBJ File: ''
# www.blender.org
mtllib Icicle.mtl
o 円錐
v 0.935525 0.000000 1.500000
v 0.935525 -0.292635 1.471178
v 0.935525 -0.574025 1.385819
v 0.935525 -0.833355 1.247204
v 0.935525 -1.060660 1.060660
v 0.935525 -1.247204 0.833355
v 0.935525 -1.385819 0.574025
v 0.935525 -1.471178 0.292636
v 0.935525 -1.500000 0.000000
v 0.935525 -1.471178 -0.292636
v 0.935525 -1.385819 -0.574025
v 0.935525 -1.247204 -0.833355
v 0.935525 -1.060660 -1.060660
v 0.935525 -0.833355 -1.247204
v 0.935525 -0.574025 -1.385819
v 0.935525 -0.292635 -1.471178
v 0.935525 0.000000 -1.500000
v 0.935525 0.292636 -1.471178
v 0.935525 0.574025 -1.385819
v 0.935525 0.833355 -1.247204
v 0.935525 1.060660 -1.060660
v 0.935525 1.247205 -0.833355
v 0.935525 1.385819 -0.574025
v 0.935525 1.471178 -0.292636
v 0.935525 1.500000 0.000000
v 0.935525 1.471178 0.292636
v 0.935525 1.385819 0.574025
v 0.935525 1.247205 0.833355
v 0.935525 1.060660 1.060660
v 0.935525 0.833355 1.247204
v 0.935525 0.574025 1.385819
v 0.935525 0.292636 1.471178
v -2.064475 -0.000000 0.000000
vt 0.442165 0.354744
vt 0.743620 0.009229
vt 0.464391 0.377686
vt 0.492401 0.399666
vt 0.525116 0.419838
vt 0.561281 0.437428
vt 0.599506 0.451759
vt 0.638320 0.462280
vt 0.676234 0.468589
vt 0.711789 0.470441
vt 0.743620 0.467765
vt 0.286180 0.442766
vt 0.286180 0.905074
vt 0.250581 0.442165
vt 0.212323 0.445848
vt 0.172876 0.453672
vt 0.133756 0.465337
vt 0.096465 0.480395
vt 0.062438 0.498267
vt 0.032982 0.518266
vt 0.009229 0.539624
vt 0.442165 0.854349
vt 0.719115 0.488899
vt 0.465918 0.875707
vt 0.495374 0.895706
vt 0.529401 0.913578
vt 0.566692 0.928636
vt 0.605812 0.940301
vt 0.645259 0.948125
vt 0.683517 0.951808
vt 0.719116 0.951207
vt 0.737574 0.875707
vt 0.990771 0.488899
vt 0.767030 0.895706
vt 0.801057 0.913578
vt 0.838347 0.928636
vt 0.877467 0.940301
vt 0.916914 0.948125
vt 0.377441 0.084361
vt 0.348575 0.377441
vt 0.055495 0.348575
vt 0.955172 0.951808
vt 0.990771 0.951207
vt 0.032815 0.314632
vt 0.017193 0.276917
vt 0.009229 0.236879
vt 0.009229 0.196057
vt 0.017193 0.156019
vt 0.032815 0.118304
vt 0.055495 0.084361
vt 0.084361 0.055495
vt 0.118304 0.032815
vt 0.236879 0.009229
vt 0.156019 0.017193
vt 0.196057 0.009229
vt 0.276917 0.017193
vt 0.314633 0.032815
vt 0.348575 0.055495
vt 0.400121 0.118304
vt 0.415743 0.156019
vt 0.423707 0.196057
vt 0.423707 0.236879
vt 0.415743 0.276917
vt 0.400121 0.314633
vt 0.377441 0.348575
vt 0.314632 0.400121
vt 0.276917 0.415743
vt 0.236879 0.423707
vt 0.196057 0.423707
vt 0.156019 0.415743
vt 0.118304 0.400121
vt 0.084361 0.377441
vn -0.4455 -0.0878 0.8910
vn -0.4455 -0.2599 0.8567
vn -0.4455 -0.4220 0.7896
vn -0.4455 -0.5680 0.6921
vn -0.4455 -0.6921 0.5680
vn -0.4455 -0.7896 0.4220
vn -0.4455 -0.8567 0.2599
vn -0.4455 -0.8910 0.0878
vn -0.4455 -0.8910 -0.0878
vn -0.4455 -0.8567 -0.2599
vn -0.4455 -0.7896 -0.4220
vn -0.4455 -0.6921 -0.5680
vn -0.4455 -0.5680 -0.6921
vn -0.4455 -0.4220 -0.7896
vn -0.4455 -0.2599 -0.8567
vn -0.4455 -0.0878 -0.8910
vn -0.4455 0.0878 -0.8910
vn -0.4455 0.2599 -0.8567
vn -0.4455 0.4220 -0.7896
vn -0.4455 0.5680 -0.6921
vn -0.4455 0.6921 -0.5680
vn -0.4455 0.7896 -0.4220
vn -0.4455 0.8567 -0.2599
vn -0.4455 0.8910 -0.0878
vn -0.4455 0.8910 0.0878
vn -0.4455 0.8567 0.2599
vn -0.4455 0.7896 0.4220
vn -0.4455 0.6921 0.5680
vn -0.4455 0.5680 0.6921
vn -0.4455 0.4220 0.7896
vn 1.0000 0.0000 -0.0000
vn -0.4455 0.2599 0.8567
vn -0.4455 0.0878 0.8910
usemtl マテリアル
s off
f 1/1/1 33/2/1 2/3/1
f 2/3/2 33/2/2 3/4/2
f 3/4/3 33/2/3 4/5/3
f 4/5/4 33/2/4 5/6/4
f 5/6/5 33/2/5 6/7/5
f 6/7/6 33/2/6 7/8/6
f 7/8/7 33/2/7 8/9/7
f 8/9/8 33/2/8 9/10/8
f 9/10/9 33/2/9 10/11/9
f 10/12/10 33/13/10 11/14/10
f 11/14/11 33/13/11 12/15/11
f 12/15/12 33/13/12 13/16/12
f 13/16/13 33/13/13 14/17/13
f 14/17/14 33/13/14 15/18/14
f 15/18/15 33/13/15 16/19/15
f 16/19/16 33/13/16 17/20/16
f 17/20/17 33/13/17 18/21/17
f 18/22/18 33/23/18 19/24/18
f 19/24/19 33/23/19 20/25/19
f 20/25/20 33/23/20 21/26/20
f 21/26/21 33/23/21 22/27/21
f 22/27/22 33/23/22 23/28/22
f 23/28/23 33/23/23 24/29/23
f 24/29/24 33/23/24 25/30/24
f 25/30/25 33/23/25 26/31/25
f 26/32/26 33/33/26 27/34/26
f 27/34/27 33/33/27 28/35/27
f 28/35/28 33/33/28 29/36/28
f 29/36/29 33/33/29 30/37/29
f 30/37/30 33/33/30 31/38/30
f 16/39/31 24/40/31 32/41/31
f 31/38/32 33/33/32 32/42/32
f 32/42/33 33/33/33 1/43/33
f 32/41/31 1/44/31 2/45/31
f 2/45/31 3/46/31 32/41/31
f 3/46/31 4/47/31 32/41/31
f 4/47/31 5/48/31 6/49/31
f 6/49/31 7/50/31 8/51/31
f 8/51/31 9/52/31 12/53/31
f 9/52/31 10/54/31 12/53/31
f 10/54/31 11/55/31 12/53/31
f 12/53/31 13/56/31 14/57/31
f 14/57/31 15/58/31 12/53/31
f 15/58/31 16/39/31 12/53/31
f 16/39/31 17/59/31 18/60/31
f 18/60/31 19/61/31 20/62/31
f 20/62/31 21/63/31 22/64/31
f 22/64/31 23/65/31 20/62/31
f 23/65/31 24/40/31 20/62/31
f 24/40/31 25/66/31 26/67/31
f 26/67/31 27/68/31 28/69/31
f 28/69/31 29/70/31 30/71/31
f 30/71/31 31/72/31 28/69/31
f 31/72/31 32/41/31 28/69/31
f 4/47/31 6/49/31 32/41/31
f 6/49/31 8/51/31 32/41/31
f 16/39/31 18/60/31 24/40/31
f 18/60/31 20/62/31 24/40/31
f 24/40/31 26/67/31 32/41/31
f 26/67/31 28/69/31 32/41/31
f 8/51/31 12/53/31 32/41/31
f 12/53/31 16/39/31 32/41/31
