# Blender v3.5.0 OBJ File: 'Enemy.blend'
# www.blender.org
mtllib EnemyHead.mtl
o 円錐
v 0.000000 5.761979 2.395346
v -0.195090 5.776482 2.395346
v -0.382683 5.819435 2.395346
v -0.555570 5.889187 2.395346
v -0.707107 5.983057 2.395346
v -0.831470 6.097438 2.395346
v -0.923880 6.227934 2.395346
v -0.980785 6.369531 2.395346
v -1.000000 6.516786 2.395346
v -0.980785 6.664042 2.395346
v -0.923880 6.805639 2.395346
v -0.831470 6.936135 2.395346
v -0.707107 7.050516 2.395346
v -0.555570 7.144386 2.395346
v -0.382683 7.214138 2.395346
v -0.195090 7.257091 2.395346
v 0.000000 7.271594 2.395346
v 0.195090 7.257091 2.395346
v 0.382683 7.214138 2.395346
v 0.555570 7.144386 2.395346
v 0.707107 7.050516 2.395346
v 0.831470 6.936135 2.395346
v 0.923880 6.805639 2.395346
v 0.980785 6.664042 2.395346
v 1.000000 6.516786 2.395346
v 0.980785 6.369531 2.395346
v 0.923880 6.227934 2.395346
v 0.831470 6.097438 2.395346
v 0.707107 5.983057 2.395346
v 0.555570 5.889187 2.395346
v 0.382683 5.819435 2.395346
v 0.195090 5.776482 2.395346
v 0.000000 6.516786 6.633107
v -0.000000 5.761979 -2.210139
v -0.195091 5.776482 -2.210139
v -0.382684 5.819435 -2.210139
v -0.555571 5.889187 -2.210139
v -0.707107 5.983057 -2.210139
v -0.831470 6.097438 -2.210139
v -0.923880 6.227934 -2.210139
v -0.980786 6.369531 -2.210139
v -1.000000 6.516787 -2.210139
v -0.980786 6.664042 -2.210139
v -0.923880 6.805639 -2.210139
v -0.831470 6.936135 -2.210139
v -0.707107 7.050516 -2.210139
v -0.555571 7.144386 -2.210139
v -0.382684 7.214138 -2.210139
v -0.195091 7.257091 -2.210139
v -0.000000 7.271594 -2.210139
v 0.195090 7.257091 -2.210139
v 0.382683 7.214138 -2.210139
v 0.555570 7.144386 -2.210139
v 0.707106 7.050516 -2.210139
v 0.831469 6.936135 -2.210139
v 0.923879 6.805639 -2.210139
v 0.980785 6.664042 -2.210139
v 1.000000 6.516787 -2.210139
v 0.980785 6.369531 -2.210139
v 0.923879 6.227934 -2.210139
v 0.831469 6.097438 -2.210139
v 0.707106 5.983057 -2.210139
v 0.555570 5.889187 -2.210139
v 0.382683 5.819435 -2.210139
v 0.195090 5.776482 -2.210139
vt 0.901709 0.241799
vt 0.904895 0.012197
vt 0.912179 0.241804
vt 0.922369 0.241661
vt 0.931887 0.241377
vt 0.940368 0.240962
vt 0.947486 0.240432
vt 0.934597 0.741682
vt 0.962358 0.511564
vt 0.940918 0.742369
vt 0.948063 0.742841
vt 0.955757 0.743079
vt 0.963704 0.743073
vt 0.971600 0.742824
vt 0.979141 0.742342
vt 0.713331 0.702793
vt 0.755922 0.474558
vt 0.720449 0.703323
vt 0.728930 0.703738
vt 0.738448 0.704022
vt 0.748638 0.704165
vt 0.759108 0.704160
vt 0.769455 0.704008
vt 0.779282 0.703715
vt 0.788212 0.703292
vt 0.795900 0.702755
vt 0.858764 0.741644
vt 0.882443 0.511564
vt 0.865660 0.742342
vt 0.873201 0.742824
vt 0.881097 0.743073
vt 0.889044 0.743078
vt 0.896738 0.742841
vt 0.903883 0.742369
vt 0.910204 0.741682
vt 0.858764 0.239764
vt 0.864916 0.240394
vt 0.872605 0.240931
vt 0.881535 0.241354
vt 0.738448 0.949388
vt 0.891362 0.241647
vt 0.016782 0.793562
vt 0.013745 0.784058
vt 0.083774 0.798542
vt 0.865660 0.987066
vt 0.912179 0.487170
vt 0.864916 0.485760
vt 0.955757 0.987803
vt 0.748638 0.949531
vt 0.873201 0.987548
vt 0.922369 0.487027
vt 0.872605 0.486297
vt 0.963704 0.987797
vt 0.759108 0.949526
vt 0.881097 0.987797
vt 0.931887 0.486743
vt 0.881535 0.486720
vt 0.971600 0.987549
vt 0.769455 0.949374
vt 0.889044 0.987803
vt 0.940368 0.486328
vt 0.891362 0.487013
vt 0.713331 0.948159
vt 0.779282 0.949081
vt 0.896738 0.987566
vt 0.934597 0.986406
vt 0.720449 0.948689
vt 0.788212 0.948658
vt 0.903883 0.987094
vt 0.940918 0.987094
vt 0.901709 0.487165
vt 0.728930 0.949104
vt 0.858764 0.986369
vt 0.858764 0.485131
vt 0.948063 0.987566
vt 0.012197 0.773875
vt 0.012197 0.763405
vt 0.092768 0.769395
vt 0.013745 0.753051
vt 0.092768 0.758925
vt 0.016782 0.743209
vt 0.021191 0.734258
vt 0.091220 0.748743
vt 0.026802 0.726543
vt 0.083774 0.730779
vt 0.033400 0.720359
vt 0.078163 0.723687
vt 0.040732 0.715945
vt 0.048515 0.713470
vt 0.071565 0.718237
vt 0.056450 0.713028
vt 0.064233 0.714638
vt 0.088183 0.739239
vt 0.091220 0.779750
vt 0.088183 0.789592
vt 0.078163 0.806258
vt 0.021191 0.802022
vt 0.071565 0.812441
vt 0.026802 0.809114
vt 0.064233 0.816856
vt 0.056450 0.819331
vt 0.033400 0.814563
vt 0.048515 0.819772
vt 0.040732 0.818162
vt 0.979141 0.987066
vt 0.947486 0.485798
vt 0.795900 0.948122
vt 0.910204 0.986406
vn -0.0730 -0.9819 0.1749
vn -0.2196 -0.9593 0.1777
vn -0.3678 -0.9117 0.1832
vn -0.5169 -0.8344 0.1913
vn -0.6631 -0.7209 0.2014
vn -0.7975 -0.5647 0.2124
vn -0.9047 -0.3636 0.2220
vn -0.9655 -0.1260 0.2278
vn -0.9655 0.1260 0.2278
vn -0.9047 0.3636 0.2220
vn -0.7975 0.5647 0.2124
vn -0.6631 0.7209 0.2014
vn -0.5169 0.8344 0.1913
vn -0.3678 0.9117 0.1832
vn -0.2196 0.9593 0.1777
vn -0.0730 0.9819 0.1749
vn 0.0730 0.9819 0.1749
vn 0.2196 0.9593 0.1777
vn 0.3678 0.9117 0.1832
vn 0.5169 0.8344 0.1913
vn 0.6631 0.7209 0.2014
vn 0.7975 0.5647 0.2124
vn 0.9047 0.3636 0.2220
vn 0.9655 0.1260 0.2278
vn 0.9655 -0.1260 0.2278
vn 0.9047 -0.3636 0.2220
vn 0.7975 -0.5647 0.2124
vn 0.6631 -0.7209 0.2014
vn 0.5169 -0.8344 0.1913
vn 0.3678 -0.9117 0.1832
vn -0.2232 0.9748 0.0000
vn 0.2196 -0.9593 0.1777
vn 0.0730 -0.9819 0.1749
vn 0.0000 0.0000 -1.0000
vn 0.8161 0.5779 0.0000
vn -0.2232 -0.9748 0.0000
vn 0.5266 -0.8501 0.0000
vn -0.9916 0.1294 0.0000
vn -0.0741 0.9972 -0.0000
vn 0.9279 0.3729 -0.0000
vn -0.3741 -0.9274 -0.0000
vn 0.3741 -0.9274 -0.0000
vn -0.9279 0.3729 0.0000
vn 0.0741 0.9972 0.0000
vn 0.9916 0.1294 -0.0000
vn -0.5266 -0.8501 0.0000
vn 0.2232 -0.9748 0.0000
vn -0.8161 0.5779 0.0000
vn 0.2232 0.9748 -0.0000
vn 0.9916 -0.1294 -0.0000
vn -0.6770 -0.7360 -0.0000
vn 0.0741 -0.9972 0.0000
vn -0.6770 0.7360 0.0000
vn 0.3741 0.9274 0.0000
vn 0.9279 -0.3729 -0.0000
vn -0.8161 -0.5779 0.0000
vn -0.5266 0.8501 -0.0000
vn 0.5266 0.8501 -0.0000
vn 0.8161 -0.5779 -0.0000
vn -0.9279 -0.3729 0.0000
vn -0.0741 -0.9972 0.0000
vn -0.3741 0.9274 0.0000
vn 0.6770 0.7360 -0.0000
vn 0.6770 -0.7360 -0.0000
vn -0.9916 -0.1294 0.0000
usemtl マテリアル
s off
f 1/1/1 33/2/1 2/3/1
f 2/3/2 33/2/2 3/4/2
f 3/4/3 33/2/3 4/5/3
f 4/5/4 33/2/4 5/6/4
f 5/6/5 33/2/5 6/7/5
f 6/8/6 33/9/6 7/10/6
f 7/10/7 33/9/7 8/11/7
f 8/11/8 33/9/8 9/12/8
f 9/12/9 33/9/9 10/13/9
f 10/13/10 33/9/10 11/14/10
f 11/14/11 33/9/11 12/15/11
f 12/16/12 33/17/12 13/18/12
f 13/18/13 33/17/13 14/19/13
f 14/19/14 33/17/14 15/20/14
f 15/20/15 33/17/15 16/21/15
f 16/21/16 33/17/16 17/22/16
f 17/22/17 33/17/17 18/23/17
f 18/23/18 33/17/18 19/24/18
f 19/24/19 33/17/19 20/25/19
f 20/25/20 33/17/20 21/26/20
f 21/27/21 33/28/21 22/29/21
f 22/29/22 33/28/22 23/30/22
f 23/30/23 33/28/23 24/31/23
f 24/31/24 33/28/24 25/32/24
f 25/32/25 33/28/25 26/33/25
f 26/33/26 33/28/26 27/34/26
f 27/34/27 33/28/27 28/35/27
f 28/36/28 33/2/28 29/37/28
f 29/37/29 33/2/29 30/38/29
f 30/38/30 33/2/30 31/39/30
f 16/21/31 48/40/31 15/20/31
f 31/39/32 33/2/32 32/41/32
f 32/41/33 33/2/33 1/1/33
f 63/42/34 64/43/34 53/44/34
f 23/30/35 55/45/35 22/29/35
f 3/4/36 35/46/36 2/3/36
f 30/38/37 62/47/37 29/37/37
f 10/13/38 42/48/38 9/12/38
f 17/22/39 49/49/39 16/21/39
f 24/31/40 56/50/40 23/30/40
f 4/5/41 36/51/41 3/4/41
f 31/39/42 63/52/42 30/38/42
f 11/14/43 43/53/43 10/13/43
f 18/23/44 50/54/44 17/22/44
f 25/32/45 57/55/45 24/31/45
f 5/6/46 37/56/46 4/5/46
f 32/41/47 64/57/47 31/39/47
f 12/15/48 44/58/48 11/14/48
f 19/24/49 51/59/49 18/23/49
f 26/33/50 58/60/50 25/32/50
f 6/7/51 38/61/51 5/6/51
f 1/1/52 65/62/52 32/41/52
f 13/18/53 45/63/53 12/16/53
f 20/25/54 52/64/54 19/24/54
f 27/34/55 59/65/55 26/33/55
f 7/10/56 39/66/56 6/8/56
f 14/19/57 46/67/57 13/18/57
f 21/26/58 53/68/58 20/25/58
f 28/35/59 60/69/59 27/34/59
f 8/11/60 40/70/60 7/10/60
f 2/3/61 34/71/61 1/1/61
f 15/20/62 47/72/62 14/19/62
f 22/29/63 54/73/63 21/27/63
f 29/37/64 61/74/64 28/36/64
f 9/12/65 41/75/65 8/11/65
f 16/21/31 49/49/31 48/40/31
f 65/76/34 34/77/34 50/78/34
f 34/77/34 35/79/34 49/80/34
f 35/79/34 36/81/34 49/80/34
f 36/81/34 37/82/34 48/83/34
f 49/80/34 36/81/34 48/83/34
f 37/82/34 38/84/34 46/85/34
f 38/84/34 39/86/34 45/87/34
f 39/86/34 40/88/34 45/87/34
f 40/88/34 41/89/34 44/90/34
f 45/87/34 40/88/34 44/90/34
f 41/89/34 42/91/34 43/92/34
f 43/92/34 44/90/34 41/89/34
f 45/87/34 46/85/34 38/84/34
f 46/85/34 47/93/34 37/82/34
f 47/93/34 48/83/34 37/82/34
f 49/80/34 50/78/34 34/77/34
f 50/78/34 51/94/34 65/76/34
f 51/94/34 52/95/34 65/76/34
f 52/95/34 53/44/34 64/43/34
f 65/76/34 52/95/34 64/43/34
f 53/44/34 54/96/34 62/97/34
f 54/96/34 55/98/34 61/99/34
f 55/98/34 56/100/34 61/99/34
f 56/100/34 57/101/34 60/102/34
f 61/99/34 56/100/34 60/102/34
f 57/101/34 58/103/34 59/104/34
f 59/104/34 60/102/34 57/101/34
f 61/99/34 62/97/34 54/96/34
f 62/97/34 63/42/34 53/44/34
f 23/30/35 56/50/35 55/45/35
f 3/4/36 36/51/36 35/46/36
f 30/38/37 63/52/37 62/47/37
f 10/13/38 43/53/38 42/48/38
f 17/22/39 50/54/39 49/49/39
f 24/31/40 57/55/40 56/50/40
f 4/5/41 37/56/41 36/51/41
f 31/39/42 64/57/42 63/52/42
f 11/14/43 44/58/43 43/53/43
f 18/23/44 51/59/44 50/54/44
f 25/32/45 58/60/45 57/55/45
f 5/6/46 38/61/46 37/56/46
f 32/41/47 65/62/47 64/57/47
f 12/15/48 45/105/48 44/58/48
f 19/24/49 52/64/49 51/59/49
f 26/33/50 59/65/50 58/60/50
f 6/7/51 39/106/51 38/61/51
f 1/1/52 34/71/52 65/62/52
f 13/18/53 46/67/53 45/63/53
f 20/25/54 53/68/54 52/64/54
f 27/34/55 60/69/55 59/65/55
f 7/10/56 40/70/56 39/66/56
f 14/19/57 47/72/57 46/67/57
f 21/26/58 54/107/58 53/68/58
f 28/35/59 61/108/59 60/69/59
f 8/11/60 41/75/60 40/70/60
f 2/3/61 35/46/61 34/71/61
f 15/20/62 48/40/62 47/72/62
f 22/29/63 55/45/63 54/73/63
f 29/37/64 62/47/64 61/74/64
f 9/12/65 42/48/65 41/75/65
